<svg aria-hidden="true" style="position: absolute; width: 0; height: 0; overflow: hidden;" version="1.1" xmlns="http://www.w3.org/2000/svg" xmlns:xlink="http://www.w3.org/1999/xlink">
<defs>
<symbol id="icon-exit" viewBox="0 0 32 32">
<path d="M20 0c2.2 0 4 1.8 4 4 0 1.8-1.2 3.4-3 3.8 0 0 0 0.2 0 0.2 0.8 0 1.4 0.4 2 1l2.6 2.6c0.2 0.2 0.6 0.4 1 0.4h3.4v-12h-10z"></path>
<path d="M23.6 29l-7.6-9v5c0 1.6-1.4 3-3 3h-7c-1.2 0-2-0.8-2-2s0.8-2 2-2h5c0.6 0 1-0.4 1-1v-4c0-1.4 0.2-2.6 0.8-4l1.4-3h-1.6c-1 0-1.8 0.4-2.4 1.2l-1 1.4c-0.4 0.8-1.4 1-2.4 0.6-0.8-0.6-1.2-1.8-0.4-2.6l1.2-1.6c1.4-2 3.8-3 6.2-3h4l0.2-0.6c-1.2-0.6-2-2-2-3.4 0-2.2 1.8-4 4-4h-14v9.8l-1.2 1.6c-0.6 0.8-1 1.8-0.8 3 0.2 1 0.8 2 1.8 2.6 0 0 0 0 0 0v5c-2.2 0-4 1.8-4 4s1.8 4 4 4v2h23.2c-2.2 0-4.2-1.2-5.4-3z"></path>
<path d="M22.8 14.6l-1.4-1.6-1.2 3c-0.4 1-0.6 1.8 0 2.6l9.8 12.2v-14.8h-4.2c-1.2 0-2.2-0.4-3-1.4z"></path>
</symbol>
</defs>
</svg>
