<svg aria-hidden="true" style="position: absolute; width: 0; height: 0; overflow: hidden;" version="1.1" xmlns="http://www.w3.org/2000/svg" xmlns:xlink="http://www.w3.org/1999/xlink">
<defs>
<symbol id="icon-btnyou" viewBox="0 0 32 32">
<path fill="#c12025" style="fill: var(--color1, #c12025)" d="M16.279 14.254c-0.264-0.152-0.532-0.293-0.781-0.468-0.239-0.168-0.447-0.336-0.687-0.5-0.128-0.087-0.41-0.173-0.41-0.257 0 0.124 0 0.619 0 0.687 0 0.396-0.030 2.436-0.026 2.692 0.006 0.428-0.027 0.856-0.011 1.284 0.015 0.408 0.017 0.798 0.003 1.224 0 0 1.019-0.495 1.155-0.58 0.523-0.329 1.035-0.687 1.571-0.993 0.263-0.15 0.536-0.284 0.787-0.453 0.228-0.155 1.114-0.9 1.145-0.881-0.409-0.25-0.805-0.511-1.232-0.732-0.545-0.283-0.982-0.716-1.514-1.021z"></path>
<path fill="#c12025" style="fill: var(--color1, #c12025)" d="M16 1.229c-8.158 0-14.771 6.613-14.771 14.771s6.613 14.771 14.771 14.771 14.771-6.613 14.771-14.771-6.613-14.771-14.771-14.771zM24.113 19.204c-0.153 0.719-0.345 1.47-0.838 2.038-0.535 0.615-1.456 0.453-2.191 0.506-1.788 0.129-3.573 0.008-5.363 0.055-0.736 0.020-1.461 0.003-2.195-0.034-0.73-0.036-1.494 0.042-2.224-0.017-0.443-0.036-0.889-0.037-1.33-0.092-0.354-0.044-0.889-0.095-1.157-0.363-0.13-0.13-0.173-0.332-0.286-0.484l-0.163-0.284c-0.701-1.495-0.687-3.141-0.69-4.774-0.002-0.607 0.072-1.21 0.056-1.818-0.011-0.392 0.167-0.763 0.192-1.158s0.1-0.777 0.291-1.12c0.372-0.668 0.561-0.981 1.253-1.265 0.347-0.142 0.992-0.182 1.364-0.175 0.442 0.008 0.885 0.006 1.326 0.001 0.897-0.011 1.793-0.037 2.69-0.035 0.78 0.002 1.57 0.006 2.348 0.055s1.562-0.027 2.343-0.007c0.644 0.016 1.289 0.015 1.932 0.062 0.481 0.036 1.042 0.094 1.46 0.361 0.251 0.16 0.53 0.374 0.643 0.637 0.328 0.764 0.602 1.539 0.648 2.375 0.047 0.857 0.058 1.715 0.082 2.573 0.004 0.148 0.009 0.296 0.013 0.444 0.028 0.841-0.029 1.692-0.203 2.516z"></path>
</symbol>
</defs>
</svg>
