<svg aria-hidden="true" style="position:absolute;width:0;height:0;overflow:hidden" xmlns="http://www.w3.org/2000/svg">
    <defs>
        <symbol id="icon-arrow-left" viewBox="0 0 32 32">
            <path stroke-linejoin="round" stroke-linecap="round" stroke-width="2.667" d="M6.667 16h18.667M16 25.334l9.333-9.333L16 6.668"/>
        </symbol>
        <symbol id="icon-favorite" viewBox="0 0 34 32">
            <path d="m17.231 31.705-2.412-2.412C5.859 21.367.001 16.025.001 9.478.001 4.136 4.136.001 9.478.001c2.929 0 5.858 1.378 7.754 3.618 1.895-2.24 4.825-3.618 7.754-3.618 5.342 0 9.477 4.135 9.477 9.477 0 6.548-5.858 11.889-14.818 19.815l-2.412 2.412z"/>
        </symbol>
        <symbol id="icon-logo" viewBox="0 0 32 32">
            <path fill="none" stroke="#fff" style="stroke:var(--color2, #fff)" stroke-linejoin="round" stroke-linecap="round" stroke-width="2.667" d="M26.427 2.667H5.574a2.907 2.907 0 0 0-2.907 2.907v20.853a2.907 2.907 0 0 0 2.907 2.907h20.853a2.907 2.907 0 0 0 2.907-2.907V5.574a2.907 2.907 0 0 0-2.907-2.907zM9.333 2.667v26.667M22.667 2.667v26.667M2.667 16h26.667M2.667 9.333h6.667M2.667 22.667h6.667M22.667 22.667h6.667M22.667 9.333h6.667"/>
        </symbol>
        <symbol id="icon-search" viewBox="0 0 32 32">
            <path fill="none" stroke="#fff" style="stroke:var(--color2, #fff)" stroke-linejoin="round" stroke-linecap="round" stroke-width="2.667" d="M14.667 25.333c5.891 0 10.667-4.776 10.667-10.667S20.558 3.999 14.667 3.999 4 8.775 4 14.666s4.776 10.667 10.667 10.667zM28 28.001l-5.8-5.8"/>
        </symbol>
        <symbol id="icon-github" viewBox="0 0 32 32">
            <path fill="#fea5bb" style="fill:var(--color3, #fea5bb)" d="M32 16c0 8.837-7.163 16-16 16S0 24.837 0 16 7.163 0 16 0s16 7.163 16 16z"/>
            <path fill="#fff" style="fill:var(--color2, #fff)" d="M16 6.588c-5.17 0-9.412 4.242-9.412 9.412 0 4.411 3.096 8.419 7.206 9.412v-3.113a2.314 2.314 0 0 1-1.196-.031c-.556-.164-1.008-.535-1.344-1.099-.214-.36-.593-.753-.988-.724l-.097-1.098c.856-.073 1.594.521 2.033 1.258.196.328.421.52.709.605.278.083.577.043.925-.08.088-.697.408-.958.649-1.327-2.452-.365-3.429-1.666-3.816-2.692-.514-1.364-.238-3.066.67-4.143.018-.021.05-.075.038-.113-.417-1.259.09-2.3.109-2.41.481.141.559-.143 2.089.786l.264.159c.111.066.075.028.186.019a7.787 7.787 0 0 1 1.97-.276h.006a8.021 8.021 0 0 1 2.002.284l.086.009c-.008-.002.024-.006.075-.037 1.911-1.158 1.842-.779 2.355-.946.019.111.519 1.169.106 2.411-.056.171 1.656 1.739.708 4.256-.388 1.026-1.365 2.328-3.816 2.693.314.48.692.734.69 1.722v3.886c4.109-.993 7.206-5 7.206-9.412 0-5.17-4.242-9.412-9.412-9.412z"/>
        </symbol>
        <symbol id="icon-close" viewBox="0 0 32 32">
            <path fill="#000000" stroke-linejoin="miter" stroke-linecap="butt" stroke-miterlimit="4" stroke-width="2.1333" d="M8.533 8.533l14.933 14.933"></path>
            <path fill="#000000" stroke-linejoin="miter" stroke-linecap="butt" stroke-miterlimit="4" stroke-width="2.1333" d="M8.533 23.467l14.933-14.933"></path>
        </symbol>
        <!-- Back To Top Button -->
        <symbol id="icon-arrow-up" viewBox="0 0 32 32">
            <path d="m27.414 12.586-10-10a2 2 0 0 0-2.828 0l-10 10a2 2 0 1 0 2.828 2.828L14 8.828V28a2 2 0 1 0 4 0V8.828l6.586 6.586c.39.39.902.586 1.414.586s1.024-.195 1.414-.586a2 2 0 0 0 0-2.828z"/>
        </symbol>
        <symbol id="icon-hearts"  >
        <path  d="M7 12.88L6.02 11.9C2.38 8.68 0 6.51 0 3.85C0 1.68 1.68 0 3.85 0C5.04 0 6.23 0.56 7 1.47C7.77 0.56 8.96 0 10.15 0C12.32 0 14 1.68 14 3.85C14 6.51 11.62 8.68 7.98 11.9L7 12.88Z" fill="#FF6B08"/>
        </symbol>
        <symbol id="icon-home" viewBox="0 0 32 32">
<path fill="#d41872" style="fill: var(--color1, #d41872)" d="M31.625 16c0 8.629-6.996 15.625-15.625 15.625s-15.625-6.996-15.625-15.625c0-8.629 6.996-15.625 15.625-15.625s15.625 6.996 15.625 15.625z"></path>
<path fill="#d41872" style="fill: var(--color2, #d41872)" d="M31.075 20.113c-0.012-0.012-0.025-0.031-0.038-0.044-1.9-1.894-3.794-3.794-5.694-5.694-0.050-0.050-0.106-0.1-0.169-0.144-2.925-2.144-5.844-4.281-8.762-6.419-0.225-0.169-0.469-0.188-0.725 0-2.112 1.55-4.231 3.1-6.344 4.65-0.813 0.594-1.619 1.188-2.431 1.781-0.088 0.063-0.162 0.131-0.206 0.231-0.088 0.2-0.044 0.4 0.131 0.575 0.594 0.6 1.194 1.194 1.794 1.788 0.075 0.075 0.106 0.15 0.106 0.262 0 2.238 0 4.469-0.006 6.706 0 0.219 0.069 0.381 0.219 0.531 2.35 2.344 4.694 4.694 7.044 7.037 0.081 0.081 0.15 0.194 0.25 0.256 7.1-0.119 13.050-4.962 14.831-11.519z"></path>
<path fill="#fff" style="fill: var(--color3, #fff)" d="M25.175 14.244l-8.887-6.506c-0.169-0.125-0.406-0.125-0.575 0l-8.887 6.506c-0.219 0.156-0.263 0.463-0.106 0.681s0.463 0.262 0.681 0.106l8.6-6.3 8.6 6.294c0.087 0.063 0.188 0.094 0.288 0.094 0.15 0 0.3-0.069 0.394-0.2 0.156-0.213 0.113-0.512-0.106-0.675z"></path>
<path fill="#fff" style="fill: var(--color3, #fff)" d="M22.819 15.144c-0.269 0-0.488 0.219-0.488 0.488v7.756h-3.894v-4.231c0-1.344-1.094-2.438-2.438-2.438s-2.438 1.094-2.438 2.438v4.231h-3.9v-7.756c0-0.269-0.219-0.488-0.488-0.488s-0.488 0.219-0.488 0.488v8.244c0 0.269 0.219 0.488 0.488 0.488h4.869c0.256 0 0.469-0.2 0.488-0.45 0-0.012 0-0.025 0-0.038v-4.719c0-0.806 0.656-1.462 1.463-1.462s1.463 0.656 1.463 1.462v4.719c0 0.012 0 0.025 0 0.038 0.019 0.25 0.231 0.45 0.488 0.45h4.869c0.269 0 0.488-0.219 0.488-0.488v-8.244c0.006-0.275-0.212-0.488-0.481-0.488z"></path>
<path fill="#fff" style="fill: var(--color3, #fff)" d="M14.125 12.313h1.381v1.381h-1.381v-1.381z"></path>
<path fill="#fff" style="fill: var(--color3, #fff)" d="M16.188 12.313h1.381v1.381h-1.381v-1.381z"></path>
<path fill="#fff" style="fill: var(--color3, #fff)" d="M14.125 14.256h1.381v1.381h-1.381v-1.381z"></path>
<path  d="M16.188 14.256h1.381v1.381h-1.381v-1.381z"></path>
</symbol>
<symbol id="icon-backbutton" viewBox="0 0 32 32">
<path d="M18.5 9c-0.391 0-0.743 0.153-1.011 0.398l-0.003-0.004-6 5.5c-0.309 0.285-0.486 0.685-0.486 1.106s0.177 0.821 0.486 1.106l6 5.5 0.003-0.004c0.268 0.245 0.62 0.398 1.011 0.398 0.828 0 1.5-0.672 1.5-1.5 0-0.437-0.19-0.828-0.489-1.102l0.003-0.004-4.794-4.394 4.794-4.395-0.003-0.004c0.299-0.273 0.489-0.663 0.489-1.101 0-0.828-0.672-1.5-1.5-1.5zM16 0c-8.836 0-16 7.164-16 16s7.164 16 16 16 16-7.164 16-16-7.164-16-16-16zM16 29c-7.168 0-13-5.832-13-13s5.832-13 13-13 13 5.832 13 13-5.832 13-13 13z"></path>
</symbol>
    </defs>
</svg>