<svg aria-hidden="true" style="position:absolute;width:0;height:0;overflow:hidden" xmlns="http://www.w3.org/2000/svg">
    <defs>
        <symbol id="icon-arrow-left" viewBox="0 0 32 32">
            <path stroke-linejoin="round" stroke-linecap="round" stroke-width="2.667" d="M6.667 16h18.667M16 25.334l9.333-9.333L16 6.668"/>
        </symbol>
        <symbol id="icon-favorite" viewBox="0 0 34 32">
            <path d="m17.231 31.705-2.412-2.412C5.859 21.367.001 16.025.001 9.478.001 4.136 4.136.001 9.478.001c2.929 0 5.858 1.378 7.754 3.618 1.895-2.24 4.825-3.618 7.754-3.618 5.342 0 9.477 4.135 9.477 9.477 0 6.548-5.858 11.889-14.818 19.815l-2.412 2.412z"/>
        </symbol>
        <symbol id="icon-logo" viewBox="0 0 32 32">
            <path fill="none" stroke="#fff" style="stroke:var(--color2, #fff)" stroke-linejoin="round" stroke-linecap="round" stroke-width="2.667" d="M26.427 2.667H5.574a2.907 2.907 0 0 0-2.907 2.907v20.853a2.907 2.907 0 0 0 2.907 2.907h20.853a2.907 2.907 0 0 0 2.907-2.907V5.574a2.907 2.907 0 0 0-2.907-2.907zM9.333 2.667v26.667M22.667 2.667v26.667M2.667 16h26.667M2.667 9.333h6.667M2.667 22.667h6.667M22.667 22.667h6.667M22.667 9.333h6.667"/>
        </symbol>
        <symbol id="icon-search" viewBox="0 0 32 32">
            <path fill="none" stroke="#fff" style="stroke:var(--color2, #fff)" stroke-linejoin="round" stroke-linecap="round" stroke-width="2.667" d="M14.667 25.333c5.891 0 10.667-4.776 10.667-10.667S20.558 3.999 14.667 3.999 4 8.775 4 14.666s4.776 10.667 10.667 10.667zM28 28.001l-5.8-5.8"/>
        </symbol>
        <symbol id="icon-github" viewBox="0 0 32 32">
            <path fill="#fea5bb" style="fill:var(--color3, #fea5bb)" d="M32 16c0 8.837-7.163 16-16 16S0 24.837 0 16 7.163 0 16 0s16 7.163 16 16z"/>
            <path fill="#fff" style="fill:var(--color2, #fff)" d="M16 6.588c-5.17 0-9.412 4.242-9.412 9.412 0 4.411 3.096 8.419 7.206 9.412v-3.113a2.314 2.314 0 0 1-1.196-.031c-.556-.164-1.008-.535-1.344-1.099-.214-.36-.593-.753-.988-.724l-.097-1.098c.856-.073 1.594.521 2.033 1.258.196.328.421.52.709.605.278.083.577.043.925-.08.088-.697.408-.958.649-1.327-2.452-.365-3.429-1.666-3.816-2.692-.514-1.364-.238-3.066.67-4.143.018-.021.05-.075.038-.113-.417-1.259.09-2.3.109-2.41.481.141.559-.143 2.089.786l.264.159c.111.066.075.028.186.019a7.787 7.787 0 0 1 1.97-.276h.006a8.021 8.021 0 0 1 2.002.284l.086.009c-.008-.002.024-.006.075-.037 1.911-1.158 1.842-.779 2.355-.946.019.111.519 1.169.106 2.411-.056.171 1.656 1.739.708 4.256-.388 1.026-1.365 2.328-3.816 2.693.314.48.692.734.69 1.722v3.886c4.109-.993 7.206-5 7.206-9.412 0-5.17-4.242-9.412-9.412-9.412z"/>
        </symbol>
        <symbol id="icon-close" viewBox="0 0 32 32">
            <path fill="#000000" stroke-linejoin="miter" stroke-linecap="butt" stroke-miterlimit="4" stroke-width="2.1333" d="M8.533 8.533l14.933 14.933"></path>
            <path fill="#000000" stroke-linejoin="miter" stroke-linecap="butt" stroke-miterlimit="4" stroke-width="2.1333" d="M8.533 23.467l14.933-14.933"></path>
        </symbol>
        <!-- Back To Top Button -->
        <symbol id="icon-arrow-up" viewBox="0 0 32 32">
            <path d="m27.414 12.586-10-10a2 2 0 0 0-2.828 0l-10 10a2 2 0 1 0 2.828 2.828L14 8.828V28a2 2 0 1 0 4 0V8.828l6.586 6.586c.39.39.902.586 1.414.586s1.024-.195 1.414-.586a2 2 0 0 0 0-2.828z"/>
        </symbol>
        <symbol id="icon-hearts"  >
        <path  d="M7 12.88L6.02 11.9C2.38 8.68 0 6.51 0 3.85C0 1.68 1.68 0 3.85 0C5.04 0 6.23 0.56 7 1.47C7.77 0.56 8.96 0 10.15 0C12.32 0 14 1.68 14 3.85C14 6.51 11.62 8.68 7.98 11.9L7 12.88Z" fill="#FF6B08"/>
        </symbol>
        <symbol id="icon-home" viewBox="0 0 32 32">
<path fill="#d41872" style="fill: var(--color1, #d41872)" d="M31.625 16c0 8.629-6.996 15.625-15.625 15.625s-15.625-6.996-15.625-15.625c0-8.629 6.996-15.625 15.625-15.625s15.625 6.996 15.625 15.625z"></path>
<path fill="#d41872" style="fill: var(--color2, #d41872)" d="M31.075 20.113c-0.012-0.012-0.025-0.031-0.038-0.044-1.9-1.894-3.794-3.794-5.694-5.694-0.050-0.050-0.106-0.1-0.169-0.144-2.925-2.144-5.844-4.281-8.762-6.419-0.225-0.169-0.469-0.188-0.725 0-2.112 1.55-4.231 3.1-6.344 4.65-0.813 0.594-1.619 1.188-2.431 1.781-0.088 0.063-0.162 0.131-0.206 0.231-0.088 0.2-0.044 0.4 0.131 0.575 0.594 0.6 1.194 1.194 1.794 1.788 0.075 0.075 0.106 0.15 0.106 0.262 0 2.238 0 4.469-0.006 6.706 0 0.219 0.069 0.381 0.219 0.531 2.35 2.344 4.694 4.694 7.044 7.037 0.081 0.081 0.15 0.194 0.25 0.256 7.1-0.119 13.050-4.962 14.831-11.519z"></path>
<path fill="#fff" style="fill: var(--color3, #fff)" d="M25.175 14.244l-8.887-6.506c-0.169-0.125-0.406-0.125-0.575 0l-8.887 6.506c-0.219 0.156-0.263 0.463-0.106 0.681s0.463 0.262 0.681 0.106l8.6-6.3 8.6 6.294c0.087 0.063 0.188 0.094 0.288 0.094 0.15 0 0.3-0.069 0.394-0.2 0.156-0.213 0.113-0.512-0.106-0.675z"></path>
<path fill="#fff" style="fill: var(--color3, #fff)" d="M22.819 15.144c-0.269 0-0.488 0.219-0.488 0.488v7.756h-3.894v-4.231c0-1.344-1.094-2.438-2.438-2.438s-2.438 1.094-2.438 2.438v4.231h-3.9v-7.756c0-0.269-0.219-0.488-0.488-0.488s-0.488 0.219-0.488 0.488v8.244c0 0.269 0.219 0.488 0.488 0.488h4.869c0.256 0 0.469-0.2 0.488-0.45 0-0.012 0-0.025 0-0.038v-4.719c0-0.806 0.656-1.462 1.463-1.462s1.463 0.656 1.463 1.462v4.719c0 0.012 0 0.025 0 0.038 0.019 0.25 0.231 0.45 0.488 0.45h4.869c0.269 0 0.488-0.219 0.488-0.488v-8.244c0.006-0.275-0.212-0.488-0.481-0.488z"></path>
<path fill="#fff" style="fill: var(--color3, #fff)" d="M14.125 12.313h1.381v1.381h-1.381v-1.381z"></path>
<path fill="#fff" style="fill: var(--color3, #fff)" d="M16.188 12.313h1.381v1.381h-1.381v-1.381z"></path>
<path fill="#fff" style="fill: var(--color3, #fff)" d="M14.125 14.256h1.381v1.381h-1.381v-1.381z"></path>
<path  d="M16.188 14.256h1.381v1.381h-1.381v-1.381z"></path>
</symbol>
<symbol id="icon-backbutton" viewBox="0 0 32 32">
<path d="M18.5 9c-0.391 0-0.743 0.153-1.011 0.398l-0.003-0.004-6 5.5c-0.309 0.285-0.486 0.685-0.486 1.106s0.177 0.821 0.486 1.106l6 5.5 0.003-0.004c0.268 0.245 0.62 0.398 1.011 0.398 0.828 0 1.5-0.672 1.5-1.5 0-0.437-0.19-0.828-0.489-1.102l0.003-0.004-4.794-4.394 4.794-4.395-0.003-0.004c0.299-0.273 0.489-0.663 0.489-1.101 0-0.828-0.672-1.5-1.5-1.5zM16 0c-8.836 0-16 7.164-16 16s7.164 16 16 16 16-7.164 16-16-7.164-16-16-16zM16 29c-7.168 0-13-5.832-13-13s5.832-13 13-13 13 5.832 13 13-5.832 13-13 13z"></path>
</symbol>
<symbol id="icon-google" viewBox="0 0 32 32">
<path stroke-linejoin="miter" stroke-linecap="butt" stroke-miterlimit="4" stroke-width="1" d="M26.347 14.36l-0.12-0.467h-9.92v4.213h5.933c-0.331 1.286-1.084 2.423-2.138 3.231s-2.348 1.238-3.676 1.223c-1.732-0.014-3.397-0.675-4.667-1.853-0.624-0.615-1.121-1.348-1.462-2.155s-0.519-1.675-0.525-2.551c0.020-1.761 0.717-3.446 1.947-4.707 1.252-1.186 2.915-1.841 4.64-1.827 1.477 0.011 2.899 0.561 4 1.547l2.933-3.013c-1.933-1.725-4.436-2.675-7.027-2.667-1.425-0.008-2.838 0.264-4.158 0.801s-2.521 1.33-3.535 2.332c-1.928 2.003-3.016 4.669-3.038 7.449s1.022 5.463 2.918 7.497c1.050 1.047 2.299 1.873 3.673 2.432s2.845 0.838 4.327 0.821c1.345 0.010 2.677-0.253 3.917-0.773s2.361-1.287 3.296-2.253c1.835-2.017 2.827-4.66 2.773-7.387 0.014-0.633-0.017-1.265-0.093-1.893z"></path>
</symbol>
<symbol id="icon-exit" viewBox="0 0 32 32">
<path d="M20 0c2.2 0 4 1.8 4 4 0 1.8-1.2 3.4-3 3.8 0 0 0 0.2 0 0.2 0.8 0 1.4 0.4 2 1l2.6 2.6c0.2 0.2 0.6 0.4 1 0.4h3.4v-12h-10z"></path>
<path d="M23.6 29l-7.6-9v5c0 1.6-1.4 3-3 3h-7c-1.2 0-2-0.8-2-2s0.8-2 2-2h5c0.6 0 1-0.4 1-1v-4c0-1.4 0.2-2.6 0.8-4l1.4-3h-1.6c-1 0-1.8 0.4-2.4 1.2l-1 1.4c-0.4 0.8-1.4 1-2.4 0.6-0.8-0.6-1.2-1.8-0.4-2.6l1.2-1.6c1.4-2 3.8-3 6.2-3h4l0.2-0.6c-1.2-0.6-2-2-2-3.4 0-2.2 1.8-4 4-4h-14v9.8l-1.2 1.6c-0.6 0.8-1 1.8-0.8 3 0.2 1 0.8 2 1.8 2.6 0 0 0 0 0 0v5c-2.2 0-4 1.8-4 4s1.8 4 4 4v2h23.2c-2.2 0-4.2-1.2-5.4-3z"></path>
<path d="M22.8 14.6l-1.4-1.6-1.2 3c-0.4 1-0.6 1.8 0 2.6l9.8 12.2v-14.8h-4.2c-1.2 0-2.2-0.4-3-1.4z"></path>
</symbol>
 <symbol id="icon-btnyou" viewBox="0 0 32 32">
<path fill="#c12025" style="fill: var(--color1, #c12025)" d="M16.279 14.254c-0.264-0.152-0.532-0.293-0.781-0.468-0.239-0.168-0.447-0.336-0.687-0.5-0.128-0.087-0.41-0.173-0.41-0.257 0 0.124 0 0.619 0 0.687 0 0.396-0.030 2.436-0.026 2.692 0.006 0.428-0.027 0.856-0.011 1.284 0.015 0.408 0.017 0.798 0.003 1.224 0 0 1.019-0.495 1.155-0.58 0.523-0.329 1.035-0.687 1.571-0.993 0.263-0.15 0.536-0.284 0.787-0.453 0.228-0.155 1.114-0.9 1.145-0.881-0.409-0.25-0.805-0.511-1.232-0.732-0.545-0.283-0.982-0.716-1.514-1.021z"></path>
<path fill="#c12025" style="fill: var(--color1, #c12025)" d="M16 1.229c-8.158 0-14.771 6.613-14.771 14.771s6.613 14.771 14.771 14.771 14.771-6.613 14.771-14.771-6.613-14.771-14.771-14.771zM24.113 19.204c-0.153 0.719-0.345 1.47-0.838 2.038-0.535 0.615-1.456 0.453-2.191 0.506-1.788 0.129-3.573 0.008-5.363 0.055-0.736 0.020-1.461 0.003-2.195-0.034-0.73-0.036-1.494 0.042-2.224-0.017-0.443-0.036-0.889-0.037-1.33-0.092-0.354-0.044-0.889-0.095-1.157-0.363-0.13-0.13-0.173-0.332-0.286-0.484l-0.163-0.284c-0.701-1.495-0.687-3.141-0.69-4.774-0.002-0.607 0.072-1.21 0.056-1.818-0.011-0.392 0.167-0.763 0.192-1.158s0.1-0.777 0.291-1.12c0.372-0.668 0.561-0.981 1.253-1.265 0.347-0.142 0.992-0.182 1.364-0.175 0.442 0.008 0.885 0.006 1.326 0.001 0.897-0.011 1.793-0.037 2.69-0.035 0.78 0.002 1.57 0.006 2.348 0.055s1.562-0.027 2.343-0.007c0.644 0.016 1.289 0.015 1.932 0.062 0.481 0.036 1.042 0.094 1.46 0.361 0.251 0.16 0.53 0.374 0.643 0.637 0.328 0.764 0.602 1.539 0.648 2.375 0.047 0.857 0.058 1.715 0.082 2.573 0.004 0.148 0.009 0.296 0.013 0.444 0.028 0.841-0.029 1.692-0.203 2.516z"></path>
</symbol>
<symbol id="icon-feed" >
<path fill="#252a35" style="fill: var(--color1, #252a35)" d="M30 16c0 7.732-6.268 14-14 14s-14-6.268-14-14c0-7.732 6.268-14 14-14s14 6.268 14 14z"></path>
<path fill="#fff" style="fill: var(--color2, #fff)" d="M17 24.5c0 0.828-0.672 1.5-1.5 1.5s-1.5-0.672-1.5-1.5c0-0.828 0.672-1.5 1.5-1.5s1.5 0.672 1.5 1.5z"></path>
<path fill="#fff" style="fill: var(--color2, #fff)" d="M14 21h3v-14h-3z"></path>
</symbol>
<symbol id="icon-fortun" viewBox="0 0 32 32">
<path fill="#ff8e31" style="fill: var(--color1, #ff8e31)" d="M22.276 17.724l-5.333-5.333c-0.241-0.241-0.575-0.39-0.943-0.39s-0.701 0.149-0.943 0.39l-5.333 5.333c-0.241 0.241-0.39 0.575-0.39 0.943 0 0.736 0.597 1.333 1.333 1.333h10.667c0.736-0 1.333-0.597 1.333-1.333 0-0.368-0.149-0.701-0.39-0.943v0z"></path>
</symbol>
    </defs>
</svg>
